<svg xmlns="http://www.w3.org/2000/svg" xmlns:xlink="http://www.w3.org/1999/xlink" width="36pt" height="36pt" viewBox="0 0 36 36" version="1.1">
  <g id="surface1">
    <path style=" stroke:none;fill-rule:nonzero;fill:rgb(0%,0%,0%);fill-opacity:1;" d="M 19 1.21875 C 18.839844 1.976562 18.765625 2.308594 18.761719 2.238281 C 18.757812 2.203125 18.75 2.167969 18.738281 2.167969 C 18.699219 2.167969 18.421875 2.523438 18.335938 2.6875 C 18.289062 2.78125 18.234375 2.863281 18.21875 2.863281 C 18.203125 2.863281 18.195312 2.871094 18.203125 2.878906 C 18.210938 2.890625 18.265625 2.875 18.324219 2.847656 C 18.382812 2.820312 18.4375 2.800781 18.441406 2.808594 C 18.445312 2.816406 18.164062 2.953125 17.8125 3.113281 C 17.457031 3.273438 17.160156 3.414062 17.148438 3.425781 C 17.136719 3.441406 17.40625 3.636719 17.746094 3.863281 C 18.085938 4.09375 18.367188 4.289062 18.367188 4.296875 C 18.367188 4.304688 18.328125 4.285156 18.28125 4.261719 L 18.195312 4.210938 L 18.269531 4.375 C 18.308594 4.464844 18.386719 4.605469 18.445312 4.691406 L 18.546875 4.847656 L 18.566406 4.679688 C 18.574219 4.589844 18.582031 4.550781 18.585938 4.59375 C 18.601562 4.875 18.707031 6.304688 18.714844 6.3125 C 18.71875 6.316406 18.902344 6.140625 19.125 5.925781 C 19.742188 5.324219 19.878906 5.199219 19.789062 5.308594 C 19.695312 5.421875 19.691406 5.421875 19.941406 5.375 C 20.195312 5.332031 20.425781 5.246094 20.386719 5.214844 C 20.320312 5.167969 20.394531 5.183594 21.03125 5.355469 C 21.375 5.449219 21.65625 5.523438 21.65625 5.519531 C 21.65625 5.515625 21.542969 5.210938 21.402344 4.847656 C 21.160156 4.210938 21.105469 4.042969 21.1875 4.210938 C 21.222656 4.28125 21.230469 4.273438 21.269531 4.078125 C 21.300781 3.953125 21.320312 3.75 21.320312 3.5625 L 21.320312 3.253906 L 21.257812 3.332031 C 21.167969 3.460938 21.230469 3.332031 21.570312 2.722656 C 21.742188 2.410156 21.875 2.152344 21.871094 2.148438 C 21.867188 2.140625 21.5625 2.167969 21.195312 2.203125 C 20.828125 2.238281 20.515625 2.261719 20.496094 2.25 C 20.476562 2.246094 20.5 2.234375 20.550781 2.234375 C 20.597656 2.234375 20.65625 2.222656 20.683594 2.214844 C 20.722656 2.199219 20.71875 2.183594 20.664062 2.136719 C 20.546875 2.035156 20.265625 1.894531 20.09375 1.855469 C 20.003906 1.835938 19.902344 1.804688 19.875 1.785156 C 19.816406 1.75 19.828125 1.792969 19.90625 1.894531 C 19.929688 1.925781 19.941406 1.949219 19.933594 1.949219 C 19.921875 1.949219 19.734375 1.714844 19.515625 1.421875 C 19.296875 1.132812 19.109375 0.882812 19.097656 0.871094 C 19.085938 0.859375 19.042969 1.011719 19 1.21875 Z M 18.75 2.394531 C 18.742188 2.421875 18.734375 2.410156 18.734375 2.378906 C 18.730469 2.34375 18.738281 2.324219 18.75 2.335938 C 18.757812 2.347656 18.757812 2.375 18.75 2.394531 Z M 20.324219 5.175781 C 20.316406 5.183594 20.292969 5.1875 20.273438 5.179688 C 20.25 5.167969 20.257812 5.160156 20.289062 5.160156 C 20.320312 5.15625 20.335938 5.167969 20.324219 5.175781 Z M 20.324219 5.175781 "/>
    <path style=" stroke:none;fill-rule:nonzero;fill:rgb(0%,0%,0%);fill-opacity:1;" d="M 8.492188 10.027344 C 7.15625 10.527344 5.683594 11.386719 4.667969 12.261719 C 2.445312 14.171875 0.941406 16.777344 0.3125 19.796875 C 0.09375 20.855469 0.015625 21.601562 0.015625 22.78125 C 0.015625 23.667969 0.0351562 23.988281 0.128906 24.703125 C 0.417969 26.878906 1.164062 28.886719 2.355469 30.691406 C 3.925781 33.066406 6.257812 34.816406 8.832031 35.5625 C 11.3125 36.28125 13.789062 36.117188 16.1875 35.074219 C 16.699219 34.847656 18.011719 34.121094 18.421875 33.832031 C 19.109375 33.34375 19.746094 32.804688 20.207031 32.316406 L 20.433594 32.078125 L 20.175781 32.15625 C 19.5625 32.339844 18.765625 32.484375 18.019531 32.550781 C 17.484375 32.59375 16.429688 32.574219 15.890625 32.503906 C 12.355469 32.042969 9.285156 29.949219 7.316406 26.648438 C 6.320312 24.972656 5.699219 23.09375 5.4375 20.925781 C 5.378906 20.445312 5.355469 18.832031 5.398438 18.296875 C 5.644531 15.203125 6.796875 12.351562 8.644531 10.226562 C 8.8125 10.035156 8.941406 9.875 8.925781 9.875 C 8.914062 9.875 8.71875 9.945312 8.492188 10.027344 Z M 8.492188 10.027344 "/>
    <path style=" stroke:none;fill-rule:nonzero;fill:rgb(0%,0%,0%);fill-opacity:1;" d="M 28.578125 11.105469 C 28.4375 11.789062 28.375 12.027344 28.414062 11.757812 L 28.429688 11.640625 L 28.300781 11.789062 C 28.140625 11.964844 28.007812 12.152344 27.945312 12.289062 C 27.898438 12.394531 27.898438 12.394531 27.953125 12.375 C 27.988281 12.363281 28.011719 12.363281 28.011719 12.367188 C 28.011719 12.378906 27.742188 12.507812 27.417969 12.65625 C 27.085938 12.808594 26.808594 12.945312 26.796875 12.953125 C 26.789062 12.960938 27.082031 13.175781 27.453125 13.425781 C 27.820312 13.671875 28.125 13.882812 28.125 13.890625 C 28.125 13.898438 28.070312 13.867188 28 13.824219 C 27.929688 13.78125 27.867188 13.742188 27.859375 13.742188 C 27.839844 13.742188 28.03125 14.113281 28.113281 14.234375 C 28.148438 14.292969 28.191406 14.367188 28.210938 14.410156 C 28.226562 14.460938 28.230469 14.421875 28.222656 14.277344 C 28.210938 14.09375 28.214844 14.089844 28.234375 14.214844 C 28.25 14.292969 28.28125 14.6875 28.308594 15.09375 C 28.335938 15.5 28.359375 15.835938 28.359375 15.839844 C 28.363281 15.84375 28.582031 15.636719 28.84375 15.382812 C 29.3125 14.925781 29.324219 14.917969 29.460938 14.910156 C 29.605469 14.902344 29.742188 14.871094 29.953125 14.800781 L 30.078125 14.757812 L 29.996094 14.722656 L 29.910156 14.683594 L 30.007812 14.703125 C 30.0625 14.714844 30.371094 14.796875 30.691406 14.878906 C 31.015625 14.96875 31.285156 15.03125 31.289062 15.023438 C 31.296875 15.019531 31.183594 14.695312 31.035156 14.308594 C 30.769531 13.605469 30.722656 13.472656 30.820312 13.675781 L 30.871094 13.785156 L 30.921875 13.597656 C 30.957031 13.476562 30.976562 13.296875 30.976562 13.089844 L 30.980469 12.765625 L 30.914062 12.855469 L 30.847656 12.941406 L 30.914062 12.816406 C 30.949219 12.746094 31.101562 12.460938 31.253906 12.1875 C 31.40625 11.914062 31.523438 11.683594 31.515625 11.675781 C 31.511719 11.667969 31.34375 11.675781 31.144531 11.699219 C 30.589844 11.75 30.292969 11.765625 30.375 11.734375 C 30.414062 11.71875 30.429688 11.703125 30.410156 11.703125 C 30.390625 11.699219 30.289062 11.640625 30.1875 11.574219 C 30.007812 11.453125 29.832031 11.378906 29.605469 11.335938 L 29.492188 11.316406 L 29.570312 11.4375 C 29.675781 11.605469 29.601562 11.507812 29.125 10.886719 C 28.914062 10.605469 28.734375 10.378906 28.734375 10.378906 C 28.730469 10.378906 28.660156 10.707031 28.578125 11.105469 Z M 30.242188 11.78125 C 30.222656 11.789062 30.1875 11.789062 30.171875 11.78125 C 30.152344 11.773438 30.167969 11.765625 30.207031 11.765625 C 30.246094 11.765625 30.257812 11.773438 30.242188 11.78125 Z M 29.503906 14.757812 C 29.503906 14.765625 29.46875 14.800781 29.425781 14.847656 L 29.347656 14.921875 L 29.414062 14.832031 C 29.480469 14.753906 29.503906 14.734375 29.503906 14.757812 Z M 29.503906 14.757812 "/>
    <path style=" stroke:none;fill-rule:nonzero;fill:rgb(0%,0%,0%);fill-opacity:1;" d="M 14.460938 10.917969 C 14.367188 11.394531 14.203125 12.109375 14.21875 11.96875 L 14.238281 11.84375 L 14.050781 12.054688 C 13.945312 12.171875 13.839844 12.324219 13.808594 12.390625 C 13.777344 12.457031 13.734375 12.535156 13.707031 12.5625 C 13.660156 12.617188 13.660156 12.617188 13.726562 12.59375 C 13.988281 12.503906 13.761719 12.621094 13.09375 12.925781 C 12.582031 13.160156 12.566406 13.167969 12.632812 13.21875 C 12.667969 13.242188 12.957031 13.4375 13.273438 13.648438 C 13.59375 13.863281 13.867188 14.046875 13.878906 14.066406 C 13.898438 14.085938 13.847656 14.058594 13.777344 14.015625 L 13.644531 13.929688 L 13.746094 14.148438 C 13.804688 14.265625 13.878906 14.398438 13.910156 14.445312 C 13.945312 14.484375 13.984375 14.546875 14 14.578125 C 14.027344 14.628906 14.035156 14.621094 14.039062 14.511719 C 14.042969 14.378906 14.097656 15.074219 14.136719 15.683594 C 14.148438 15.878906 14.164062 16.039062 14.171875 16.039062 C 14.179688 16.039062 14.371094 15.859375 14.597656 15.640625 C 15.238281 15.019531 15.351562 14.910156 15.25 15.035156 L 15.15625 15.144531 L 15.335938 15.121094 C 15.5 15.101562 15.816406 14.996094 15.855469 14.953125 C 15.867188 14.945312 15.84375 14.9375 15.804688 14.9375 C 15.769531 14.9375 15.746094 14.925781 15.757812 14.917969 C 15.773438 14.898438 15.992188 14.953125 16.6875 15.144531 C 16.90625 15.203125 17.085938 15.246094 17.089844 15.238281 C 17.101562 15.234375 17 14.953125 16.875 14.617188 C 16.75 14.28125 16.640625 13.992188 16.628906 13.96875 C 16.621094 13.945312 16.628906 13.929688 16.648438 13.9375 C 16.714844 13.957031 16.769531 13.703125 16.773438 13.339844 L 16.78125 12.984375 L 16.714844 13.074219 C 16.617188 13.195312 16.632812 13.167969 17 12.507812 C 17.179688 12.179688 17.324219 11.902344 17.324219 11.890625 C 17.324219 11.878906 17.164062 11.882812 16.96875 11.90625 C 16.472656 11.957031 16.019531 11.980469 16.15625 11.953125 C 16.21875 11.9375 16.246094 11.925781 16.222656 11.921875 C 16.195312 11.921875 16.097656 11.863281 16.007812 11.796875 C 15.90625 11.722656 15.746094 11.648438 15.613281 11.605469 C 15.316406 11.515625 15.285156 11.519531 15.363281 11.636719 C 15.453125 11.765625 15.101562 11.328125 14.84375 10.984375 C 14.683594 10.773438 14.550781 10.601562 14.539062 10.597656 C 14.53125 10.597656 14.496094 10.742188 14.460938 10.917969 Z M 16.621094 13.882812 C 16.621094 13.898438 16.609375 13.894531 16.59375 13.867188 C 16.578125 13.84375 16.566406 13.804688 16.566406 13.789062 C 16.566406 13.769531 16.578125 13.78125 16.59375 13.804688 C 16.609375 13.832031 16.621094 13.863281 16.621094 13.882812 Z M 16.621094 13.882812 "/>
    <path style=" stroke:none;fill-rule:nonzero;fill:rgb(0%,0%,0%);fill-opacity:1;" d="M 10.03125 18.703125 C 9.890625 19.394531 9.832031 19.628906 9.863281 19.375 L 9.878906 19.234375 L 9.707031 19.445312 C 9.542969 19.644531 9.367188 19.917969 9.367188 19.976562 C 9.367188 19.992188 9.394531 19.996094 9.429688 19.984375 C 9.570312 19.941406 9.382812 20.039062 8.84375 20.285156 C 8.535156 20.425781 8.273438 20.554688 8.261719 20.566406 C 8.246094 20.578125 8.492188 20.765625 8.808594 20.976562 C 9.367188 21.351562 9.488281 21.441406 9.386719 21.398438 C 9.359375 21.386719 9.335938 21.386719 9.335938 21.394531 C 9.335938 21.445312 9.492188 21.753906 9.578125 21.882812 L 9.675781 22.023438 L 9.679688 21.898438 C 9.679688 21.667969 9.699219 21.84375 9.746094 22.546875 C 9.769531 22.9375 9.796875 23.300781 9.804688 23.359375 L 9.820312 23.460938 L 10.214844 23.074219 C 10.851562 22.457031 11.050781 22.269531 10.933594 22.410156 L 10.828125 22.535156 L 11.015625 22.507812 C 11.125 22.496094 11.285156 22.460938 11.375 22.425781 C 11.542969 22.367188 11.542969 22.363281 11.449219 22.34375 C 11.398438 22.332031 11.367188 22.316406 11.371094 22.308594 C 11.382812 22.296875 12.152344 22.492188 12.59375 22.621094 C 12.691406 22.648438 12.742188 22.652344 12.742188 22.632812 C 12.742188 22.613281 12.640625 22.332031 12.515625 22.007812 C 12.390625 21.683594 12.277344 21.378906 12.261719 21.332031 L 12.234375 21.242188 L 12.289062 21.316406 L 12.339844 21.394531 L 12.375 21.222656 C 12.398438 21.128906 12.417969 20.894531 12.421875 20.707031 L 12.429688 20.363281 L 12.371094 20.460938 C 12.339844 20.519531 12.308594 20.566406 12.300781 20.566406 C 12.292969 20.566406 12.308594 20.519531 12.339844 20.460938 C 12.492188 20.1875 12.871094 19.5 12.929688 19.394531 L 12.996094 19.269531 L 12.820312 19.289062 C 11.726562 19.402344 11.421875 19.421875 11.765625 19.355469 L 11.875 19.335938 L 11.78125 19.273438 C 11.46875 19.074219 11.300781 19.003906 11.03125 18.949219 L 10.933594 18.929688 L 11.023438 19.066406 C 11.15625 19.253906 11.039062 19.113281 10.59375 18.527344 C 10.382812 18.25 10.195312 18.019531 10.1875 18.019531 C 10.175781 18.019531 10.105469 18.328125 10.03125 18.703125 Z M 9.5625 21.496094 C 9.5625 21.503906 9.539062 21.496094 9.507812 21.476562 C 9.476562 21.460938 9.449219 21.4375 9.449219 21.425781 C 9.449219 21.421875 9.476562 21.425781 9.507812 21.445312 C 9.539062 21.464844 9.5625 21.488281 9.5625 21.496094 Z M 9.5625 21.496094 "/>
    <path style=" stroke:none;fill-rule:nonzero;fill:rgb(0%,0%,0%);fill-opacity:1;" d="M 20.574219 21.011719 C 20.566406 21.035156 20.5 21.359375 20.425781 21.730469 C 20.34375 22.101562 20.28125 22.363281 20.28125 22.3125 L 20.277344 22.21875 L 20.117188 22.40625 C 19.957031 22.589844 19.773438 22.875 19.773438 22.933594 C 19.773438 22.949219 19.804688 22.953125 19.851562 22.945312 C 19.976562 22.910156 19.878906 22.960938 19.242188 23.253906 C 18.769531 23.476562 18.652344 23.539062 18.679688 23.570312 C 18.699219 23.589844 18.988281 23.785156 19.316406 24.007812 C 19.640625 24.226562 19.914062 24.414062 19.914062 24.425781 C 19.914062 24.433594 19.867188 24.410156 19.8125 24.375 C 19.722656 24.316406 19.632812 24.28125 19.703125 24.332031 C 19.722656 24.347656 19.769531 24.429688 19.8125 24.523438 C 19.851562 24.613281 19.929688 24.75 19.984375 24.832031 L 20.082031 24.976562 L 20.085938 24.820312 C 20.089844 24.59375 20.105469 24.71875 20.164062 25.59375 C 20.195312 26.035156 20.226562 26.394531 20.230469 26.402344 C 20.234375 26.410156 20.449219 26.207031 20.707031 25.957031 C 20.964844 25.707031 21.1875 25.507812 21.199219 25.507812 C 21.25 25.523438 21.539062 25.464844 21.738281 25.398438 L 21.945312 25.332031 L 21.835938 25.296875 C 21.59375 25.214844 21.816406 25.261719 22.429688 25.425781 C 22.785156 25.523438 23.101562 25.605469 23.128906 25.617188 C 23.167969 25.632812 23.179688 25.621094 23.167969 25.59375 C 22.964844 25.082031 22.640625 24.203125 22.648438 24.191406 C 22.65625 24.183594 22.675781 24.226562 22.699219 24.28125 L 22.734375 24.382812 L 22.785156 24.164062 C 22.816406 24.027344 22.835938 23.832031 22.835938 23.648438 C 22.835938 23.382812 22.828125 23.355469 22.796875 23.410156 C 22.589844 23.738281 22.664062 23.585938 23.085938 22.816406 C 23.257812 22.503906 23.394531 22.246094 23.390625 22.242188 C 23.390625 22.238281 23.109375 22.265625 22.765625 22.296875 C 22.425781 22.332031 22.125 22.355469 22.09375 22.347656 C 22.0625 22.339844 22.09375 22.332031 22.164062 22.332031 C 22.304688 22.328125 22.296875 22.3125 22.070312 22.15625 C 21.898438 22.042969 21.707031 21.96875 21.480469 21.921875 C 21.351562 21.894531 21.347656 21.894531 21.390625 21.953125 C 21.417969 21.988281 21.429688 22.011719 21.421875 22.011719 C 21.410156 22.011719 21.226562 21.78125 21.007812 21.492188 C 20.789062 21.207031 20.605469 20.976562 20.597656 20.976562 C 20.589844 20.976562 20.582031 20.992188 20.574219 21.011719 Z M 21.492188 22.097656 C 21.527344 22.148438 21.523438 22.152344 21.480469 22.109375 C 21.453125 22.089844 21.429688 22.0625 21.429688 22.054688 C 21.429688 22.03125 21.453125 22.046875 21.492188 22.097656 Z M 21.375 25.324219 C 21.375 25.332031 21.332031 25.375 21.285156 25.425781 L 21.191406 25.519531 L 21.273438 25.414062 C 21.351562 25.320312 21.375 25.296875 21.375 25.324219 Z M 21.375 25.324219 "/>
    <path style=" stroke:none;fill-rule:nonzero;fill:rgb(0%,0%,0%);fill-opacity:1;" d="M 32.066406 21.703125 C 31.972656 22.179688 31.808594 22.894531 31.828125 22.75 L 31.84375 22.625 L 31.664062 22.832031 C 31.5625 22.945312 31.445312 23.109375 31.402344 23.195312 C 31.359375 23.28125 31.308594 23.363281 31.292969 23.375 C 31.273438 23.390625 31.296875 23.394531 31.34375 23.382812 C 31.5 23.347656 31.453125 23.371094 30.265625 23.917969 L 30.171875 23.960938 L 30.785156 24.375 C 31.363281 24.757812 31.578125 24.917969 31.367188 24.796875 L 31.277344 24.75 L 31.3125 24.832031 C 31.40625 25.074219 31.570312 25.347656 31.621094 25.347656 C 31.628906 25.347656 31.640625 25.316406 31.644531 25.273438 C 31.652344 25.234375 31.679688 25.570312 31.710938 26.011719 C 31.738281 26.460938 31.773438 26.824219 31.78125 26.824219 C 31.792969 26.824219 32.007812 26.621094 32.261719 26.375 C 32.714844 25.933594 32.726562 25.925781 32.863281 25.917969 C 32.941406 25.910156 33.105469 25.878906 33.226562 25.84375 C 33.425781 25.78125 33.445312 25.773438 33.398438 25.734375 C 33.367188 25.710938 33.351562 25.691406 33.363281 25.691406 C 33.386719 25.691406 33.695312 25.773438 34.265625 25.925781 C 34.5 25.988281 34.691406 26.035156 34.699219 26.023438 C 34.703125 26.019531 34.601562 25.726562 34.46875 25.378906 C 34.335938 25.027344 34.226562 24.734375 34.226562 24.726562 C 34.226562 24.71875 34.242188 24.722656 34.257812 24.734375 C 34.324219 24.78125 34.414062 24.242188 34.382812 23.972656 L 34.367188 23.804688 L 34.308594 23.875 C 34.257812 23.945312 34.851562 22.828125 34.910156 22.742188 C 34.925781 22.71875 34.929688 22.695312 34.921875 22.683594 C 34.914062 22.675781 34.640625 22.691406 34.3125 22.71875 C 33.984375 22.75 33.710938 22.765625 33.703125 22.753906 C 33.691406 22.746094 33.726562 22.734375 33.78125 22.734375 C 33.84375 22.730469 33.855469 22.722656 33.820312 22.714844 C 33.789062 22.703125 33.714844 22.660156 33.652344 22.613281 C 33.464844 22.476562 33.242188 22.378906 33.011719 22.339844 C 32.894531 22.316406 32.890625 22.320312 32.933594 22.378906 C 33.039062 22.53125 32.683594 22.089844 32.433594 21.753906 C 32.285156 21.554688 32.15625 21.386719 32.148438 21.386719 C 32.136719 21.382812 32.101562 21.527344 32.066406 21.703125 Z M 33.050781 22.539062 C 33.085938 22.589844 33.082031 22.589844 33.042969 22.550781 C 33.011719 22.527344 32.992188 22.503906 32.992188 22.496094 C 32.992188 22.472656 33.011719 22.488281 33.050781 22.539062 Z M 33.644531 22.789062 C 33.625 22.796875 33.59375 22.796875 33.574219 22.789062 C 33.554688 22.78125 33.570312 22.773438 33.609375 22.773438 C 33.648438 22.773438 33.664062 22.78125 33.644531 22.789062 Z M 34.222656 24.667969 C 34.214844 24.679688 34.195312 24.664062 34.1875 24.632812 C 34.171875 24.589844 34.175781 24.585938 34.203125 24.613281 C 34.222656 24.636719 34.230469 24.660156 34.222656 24.667969 Z M 32.90625 25.765625 C 32.90625 25.769531 32.871094 25.808594 32.832031 25.851562 L 32.75 25.925781 L 32.820312 25.839844 C 32.882812 25.761719 32.90625 25.738281 32.90625 25.765625 Z M 32.90625 25.765625 "/>
  </g>
</svg>